<?xml version="1.0" encoding="utf-8"?>
<!-- Generator: Adobe Illustrator 25.4.1, SVG Export Plug-In . SVG Version: 6.00 Build 0)  -->
<svg version="1.1" id="e80" xmlns="http://www.w3.org/2000/svg" xmlns:xlink="http://www.w3.org/1999/xlink" x="0px" y="0px"
	 viewBox="0 0 349 103.8" style="enable-background:new 0 0 349 103.8;" xml:space="preserve">
<style type="text/css">
	.st0{fill-rule:evenodd;clip-rule:evenodd;fill:#FFFFFF;}
	.st1{fill-rule:evenodd;clip-rule:evenodd;fill:#E9B415;}
</style>
<path id="white" class="st0" d="M170.1,99.6c0.6,1,3.3,2.9,6.4,4.1H6.6c-2.3,0-4.5,0.1-6.6,0c24.7-4.9,46.8-15.4,64-29.6
	c0.3-0.1,0.7-0.2,1.1-0.2c1.1,0,2.1,0,3.2,0c34.8,0,69.6,0,104.4,0c-0.3,1.3-1.3,3.1-1.8,4.3c-0.6,1.4-1.2,2.7-1.8,4.2
	C165.6,91.6,167.1,96.6,170.1,99.6 M191.8,29.1c3.7-9.1,7.8-17.7,15.7-23.6c4.4-3.3,6.7-4.5,9.9-5.2H52.7C49.2,0,45.5,0.7,42.4,2.6
	c-2.9,1.7-5.5,4.6-7.5,9.3l-2,4.5c-0.5,1-1.2,3.2-1.3,4.1c-0.1,0.2-0.2,0.5-0.2,0.8c0,0.5,0.1,0.9,0.3,1.1l0,0
	c1.2,1.3,5.2,2.2,9,2.1c3-0.1,5.3-0.6,6.8-1.3c0.2-0.1,0.5-0.3,1-0.6l0,0l0,0c0.1-0.1,0.3-0.1,0.4-0.2c0.2-0.1,0.4-0.2,0.6-0.2
	C59.6,18,73,16.1,80.8,17.6c3,0.4,7.3,1.7,7.1,1.6c-0.9-0.8-16.3-4.7-21.1-10.3c-0.7-0.8-2-3-2.1-4.2c5,2.6,7.4,3.7,13,5.5
	c7.9,2.6,24.8,3.6,31.2,9.8c2.2,1.7,5.8,6.4,6.5,9.1H191.8z M175.4,66.4C180.2,58,185.9,53,192.5,53c-0.5-0.4-1.1-0.6-1.7-1.1
	c-5.6-3.8-2.4-9.9-1.3-15.2c-5.7,0-12.8-0.2-18.5-0.2h-50.5c0.7,0.8,1.6,1.5,2.1,1.9c1,0.9,1.5,1.6,2,2.2c0.6,0.8,1.4,2.3,1.7,3.3
	c1.2,3.6,0.4,5.7-1.5,8.8c-0.5,0.8-1.1,1.8-1.7,2.4c-0.9,0.9-1.3,1.8-2.1,2c0.5-1.1,0.4-3.1,0.1-4.4c-0.5-2.3-2.1-5.1-4.5-6.9
	c-3-2.5-7.9-3.3-13-1C101,45.2,83,58.1,74.7,64.1c-0.6,0.4-0.9,0.7-1.5,1.1c-0.9,0.6-1.1,0.7-1.4,1.3L175.4,66.4z M178,68.6
	c4.1-9.3,11.7-14.1,19.2-15.1c-8.4-3.8-6.8-13.3-3.5-20.8l4-9.2C206.2,4.1,218.5,0,233.9,0h21.2c15,0,20.1,9.1,13.1,25.5l-3.7,8.2
	c-1.2,3.4-7.3,13.7-17.9,15.6c7.5,2.4,5.2,13.8,2.6,19.9l-5.5,12.7c-7.1,16.3-16.4,20.7-25.7,21.9h-35.5
	c-17.6-2.7-12.1-17.6-9.4-23.6L178,68.6z M197.4,89.2h16c5.7,0,11.6-2.4,14.5-9.3l5.2-11.6c2.8-6.5,0-9.7-6-9.7h-17.3
	c-6.4,0-11.9,2.7-15,9.7l-5,11.6C186.7,86.9,188.9,89.2,197.4,89.2z M216,44.3h17.1c8.9,0,12.4-5.1,14.5-9.9l3.4-7.8
	c4.3-9.8,1.7-11.7-5.4-11.7h-16c-9.1,0-13,3.1-16.8,11.7l-3.3,7.8C206,42.5,211.2,44.3,216,44.3z M271.8,23.8
	c5.6-12.8,13.5-20.6,24-23.7H341c9.3,3.7,9.6,13.4,5.4,23.1l-24.2,55.8c-7.4,17-18.6,24.7-34.9,24.7h-23.6c-15,0-23.4-7.5-15.9-24.7
	L271.8,23.8z M272.5,88h17.4c7.8,0,13-3.3,16.4-11.1l22.5-51.7c3.3-7.6,1.9-11.1-6.3-11.1h-18.3c-9.9,0-14.4,6.2-16.4,11.1
	l-22.4,51.6C260.5,88.1,266.9,88,272.5,88z"/>
<path id="yelllow" class="st1" d="M251.7,42.9c-1.7-2.7,3.6,0.5,3.6,0.5s1.4,1.5-4.7-5.1c0,0-2.7-3.1-2.7-4c-0.1-0.9,6,3.9,6,3.9
	s-5.8-6.9-6.5-7.9c-0.8-0.9-0.5-2.4,2.1-0.7c2.1,1.4,2.9,2,3.2,2.3c-0.5-0.9-3.5-4.4-4-5.7c-0.5-1.3-0.2-3,1.4-0.9
	c4.9,6.2,15.3,15.5,19.3,18.4c4.1,2.8,10.7,6.1,16,10.2c2.3,1.8,3.4,5.1,5,6.2c2.4,1.5,3.3,1.4,3.3,1.4c0,0-1.3-0.4-2.4-1.4
	c0.9-3.2,1.2-8.9,3.3-10.9c3.6-3.2,10.8-5.9,13.1-10.3c2.4-4.3,1.6-4,3.1-8.1c1-2.9,1,1.4,1.6,1c0.3-0.2,0.5-0.4,0.4-1.9
	c-0.4-5.2,0.6-3,1.2-0.6c0.5,2,0.1-1.8,0.3-4.5c0.8-3.5,1.9,3.2,1.7,0.3c0-0.5-0.4-3.7-0.6-5.4c-0.1-1.5,0.3-2.1,0.8-0.8
	c1.1,2.7,4.1,7.8,4.3,13c0.2,5.2-4,14.6-7.5,18.6l-11.4,13.1c5.7,0.7,5.7,1.9,9.4,0.9c4.2-1.1,5.3,1.5,5.3,1.5s3,0.1,2.3,2.7
	c-0.3,0.9-0.4,1-0.4,1s-0.2-1.6-2.2-1.3c-1.1,0.2-2.4,0.6-7.8,3.8c-5.4,3.2-7.3,2-8.3,4c-1.6,3,2.3,3.3,2.5,3.9c0.1,0.6-1,0.8-1,0.8
	c0.2,0.4,0.7,1.2,1.4,1.6c-0.2,0.2-0.3,0.3-0.4,0.4l-1.7-1.5c0,0-0.5,1-1.1,0.9c-0.6-0.1-0.8-2.9-3-2.5c-2.2,0.4-1.5,1.9,0.2,2.9
	c0.7,0.4,0.5,1.3,0.3,1.7c0.3,0.4,0.6,1.1,1.5,1.4c-0.2,0.2-0.5,0.3-0.7,0.4l-1.4-1.1c-1,0.9-2.4,1-4.1-1.2c-0.5-0.7-3-4-3.6-5.4
	c-0.5-0.1-0.8-0.4-1.1-0.3c-0.4,0.1-0.8,4.9-0.9,5.6c0,0.1-2.5,2-4.7,2.1c-2.7,0.1-5.2-1.6-5.3-2c-0.2-0.7,3.5-5.6,3.7-5.9
	c0.8-1,4.1-2.9,4.3-3.3c0.1-0.3,0.7-1.7,0.8-2.2c0.1-0.3,0.1-0.6,0.2-0.9c-1.6-1.7-6.9-7-14.7-9.2c-9.4-2.7-14.2-8.9-17.4-16.1
	L251.7,42.9z M110.6,30.3c-0.1-1.3-5.9-6.4-13.4-6.9c-0.3-0.2,4.5,2,6.2,4.1c0.5,1.3,1.5,2.1,2.4,2.7
	C107.8,31.6,108.7,30.8,110.6,30.3L110.6,30.3z M83.8,89.1h-5l-0.9,2.1h2.3l-1,2.3c-0.4,0.2-1,0.3-1.6,0.3c-1.1,0-1.7-0.3-2.1-1
	c-0.3-0.7-0.2-1.6,0.3-2.8c0.5-1.2,1.3-2.1,2.3-2.9c1-0.7,2-1.1,3.1-1.1c1.3,0,2.3,0.3,3,0.8l1.1-2.5c-0.8-0.3-1.8-0.5-3.1-0.5
	c-2,0-3.8,0.6-5.5,1.7c-1.7,1.2-2.9,2.7-3.7,4.5c-0.8,1.8-0.9,3.3-0.2,4.3c0.6,1,1.9,1.6,3.8,1.6c1.7,0,3.3-0.3,4.7-1L83.8,89.1z
	 M96.4,86c1.2,0,1.6,0.5,1.2,1.5c-0.2,0.5-0.6,0.9-1.1,1.2c-0.5,0.3-1,0.5-1.6,0.5h-1.1l1.4-3.3H96.4z M97.5,92.3
	c0-0.2-0.1-0.4-0.1-0.6c-0.1-0.2-0.1-0.4-0.2-0.5c-0.1-0.2-0.2-0.3-0.3-0.4c-0.1-0.1-0.2-0.2-0.4-0.3l0,0c0.4-0.1,0.9-0.3,1.3-0.5
	c0.4-0.2,0.8-0.4,1.1-0.7c0.3-0.3,0.7-0.6,0.9-0.9c0.3-0.3,0.5-0.7,0.7-1.1c0.9-2.1-0.1-3.2-2.9-3.2h-4.2l-5,11.7h2.6l1.9-4.5h0.7
	c0.2,0,0.3,0,0.4,0.1c0.1,0.1,0.2,0.2,0.3,0.3c0.1,0.1,0.1,0.3,0.2,0.5c0,0.2,0.1,0.4,0.1,0.6l0.5,3h3L97.5,92.3z M113.6,86.1
	c0.9,0,1.5,0.3,1.7,1c0.2,0.7,0.1,1.6-0.4,2.8c-0.5,1.2-1.2,2.1-2,2.7c-0.8,0.7-1.7,1-2.6,1c-0.9,0-1.5-0.3-1.7-1
	c-0.3-0.7-0.1-1.6,0.4-2.8c0.5-1.1,1.2-2.1,2-2.8C111.7,86.5,112.6,86.1,113.6,86.1 M114.1,94.3c1.6-1.1,2.7-2.6,3.5-4.5
	c0.8-1.8,0.9-3.2,0.3-4.3c-0.6-1.1-1.7-1.6-3.4-1.6c-1.8,0-3.4,0.6-5,1.7c-1.6,1.1-2.7,2.6-3.5,4.5c-0.8,1.8-0.8,3.2-0.2,4.3
	c0.6,1.1,1.7,1.6,3.4,1.6C110.9,96,112.6,95.4,114.1,94.3z M136.8,84.1h-2.6l-3,6.9c-0.8,1.8-1.9,2.7-3.4,2.7c-1.5,0-1.8-0.9-1-2.8
	l2.9-6.8h-2.6l-2.9,6.8c-1.5,3.4-0.6,5.2,2.6,5.2c3.3,0,5.7-1.8,7.2-5.3L136.8,84.1z M147.3,86.1c1.4,0,1.9,0.6,1.3,1.8
	c-0.5,1.2-1.5,1.8-2.9,1.8h-1l1.6-3.7H147.3z M145.1,91.8c1.4,0,2.7-0.4,3.9-1.1c1.2-0.7,2-1.7,2.5-2.9c1.1-2.5,0.1-3.7-2.8-3.7
	h-4.1l-5,11.7h2.6l1.7-4H145.1z"/>
</svg>
